<?xml version="1.0" encoding="UTF-8" standalone="no"?>
<!-- Created with Inkscape (http://www.inkscape.org/) -->

<svg
   viewBox="0 0 24 24"
   version="1.1"
   id="svg1"
   fill="none"
   xml:space="preserve"
   xmlns="http://www.w3.org/2000/svg"
   xmlns:svg="http://www.w3.org/2000/svg"><defs
     id="defs1" /><g
     id="layer7"><path
       style="fill:#000000;stroke-width:0.414419"
       d="m 7.7486828,20.892378 c -0.174856,-0.11132 -0.310152,-2.587064 -0.171556,-3.139267 l 0.06608,-0.263308 h 3.2606622 3.260661 l 0.136346,0.436867 c 0.175446,0.562149 0.166827,1.768005 -0.01764,2.468812 l -0.144313,0.548241 -3.112884,0.02668 c -1.8392232,0.01576 -3.1801782,-0.01617 -3.2773552,-0.07803 z m 9.1999202,-0.07081 c -0.206628,-0.248709 -0.271546,-2.001035 -0.10217,-2.757885 l 0.130283,-0.582166 0.950633,0.03155 0.950631,0.03155 v 1.699548 1.699547 l -0.887719,0.03157 c -0.725579,0.02581 -0.915834,-0.0023 -1.041658,-0.153721 z M 5.2374978,17.034848 c -0.157178,-0.450882 -0.153383,-1.588406 0.0082,-2.465493 l 0.128601,-0.697944 h 0.971323 c 0.821953,0 0.983439,0.0295 1.050118,0.191885 0.105365,0.25659 0.101004,2.634376 -0.0055,3.015327 l -0.08433,0.301532 h -0.974017 -0.974019 z m 9.2039312,-0.559291 c -0.09302,-0.656889 -0.09635,-1.099762 -0.01216,-1.617311 0.06377,-0.391994 0.116315,-0.799063 0.11677,-0.904599 7.87e-4,-0.17869 -0.235868,-0.191885 -3.44136,-0.191885 -3.0376772,0 -3.4500112,-0.02038 -3.5087452,-0.17344 -0.110096,-0.286907 -0.07371,-2.482761 0.04842,-2.922544 l 0.113755,-0.409604 3.3669672,-0.02899 3.366965,-0.02899 -0.01747,-0.4385927 c -0.05992,-1.5043745 -0.0563,-2.2497213 0.01294,-2.6595755 l 0.07862,-0.4653999 h 1.024633 c 1.274627,0 1.140967,-0.6302972 1.139342,5.3727631 -0.0016,6.008908 0.133074,5.372765 -1.137655,5.372765 H 14.569524 Z M 7.9015498,6.3314144 C 7.6740118,6.1802449 7.5419298,4.754498 7.6718918,3.8523911 l 0.120461,-0.8361574 h 3.1877832 3.187782 l 0.134654,0.7098321 c 0.166929,0.8799723 0.168821,1.276427 0.0099,2.0679111 L 14.187686,6.4153297 11.10526,6.4136497 C 9.4099248,6.4127255 7.9682698,6.3757197 7.9015808,6.3314137 Z"
       id="path1" /></g></svg>
