<svg xmlns="http://www.w3.org/2000/svg" viewBox="0 0 10 11" fill="none">
  <path d="M6.82618 3.07395C6.8105 3.07006 6.79587 3.06283 6.78324 3.05277C6.77063 3.04269 6.76031 3.03002 6.75306 3.01561C6.74579 3.00119 6.74172 2.98537 6.74112 2.96924C6.74054 2.9531 6.74344 2.93704 6.74963 2.92213C6.96359 2.40145 7.058 1.98483 6.90564 1.81042C6.50214 1.34769 4.88396 2.26784 4.36801 2.57949C4.3542 2.5878 4.33874 2.59303 4.32272 2.59481C4.3067 2.5966 4.29048 2.59491 4.27517 2.58986C4.25987 2.58481 4.24581 2.57652 4.234 2.56555C4.22219 2.55457 4.2129 2.54118 4.20672 2.52629C3.98985 2.0067 3.76185 1.6453 3.53076 1.62963C2.91823 1.58771 2.42452 3.38266 2.27999 3.96767C2.27613 3.98335 2.26893 3.998 2.25889 4.01061C2.24883 4.02324 2.23616 4.03354 2.22177 4.04081C2.20737 4.04808 2.19157 4.05214 2.17544 4.05273C2.15933 4.05333 2.14327 4.05043 2.12836 4.04423C1.60768 3.83028 1.19088 3.73587 1.01665 3.88823C0.553921 4.29173 1.47391 5.90991 1.78555 6.42585C1.79388 6.43965 1.79913 6.45511 1.80094 6.47114C1.80274 6.48716 1.80106 6.5034 1.79602 6.51871C1.79097 6.53404 1.78266 6.54809 1.77167 6.5599C1.76068 6.57171 1.74726 6.58098 1.73234 6.58713C1.21293 6.804 0.851532 7.03199 0.835677 7.26308C0.793942 7.87562 2.58872 8.36935 3.17392 8.51387C3.18956 8.51777 3.20416 8.52501 3.21675 8.53507C3.22932 8.54513 3.2396 8.55779 3.24684 8.57219C3.25409 8.58657 3.25816 8.60235 3.25874 8.61846C3.25934 8.63456 3.25646 8.65061 3.25028 8.66548C3.03632 9.18617 2.94192 9.60297 3.09428 9.7772C3.49778 10.2399 5.11614 9.31994 5.63209 9.00829C5.6459 8.99996 5.66135 8.99472 5.67739 8.99291C5.69341 8.99111 5.70965 8.99278 5.72496 8.99785C5.74029 9.0029 5.75432 9.01121 5.76613 9.0222C5.77794 9.03319 5.78723 9.0466 5.79338 9.06151C6.01025 9.58092 6.23806 9.94233 6.46933 9.95819C7.08187 9.99992 7.57558 8.20514 7.71992 7.61995C7.72382 7.60429 7.73106 7.58966 7.74113 7.57706C7.75121 7.56445 7.7639 7.55417 7.77831 7.54692C7.79273 7.53968 7.80853 7.53562 7.82466 7.53505C7.84079 7.53447 7.85684 7.53737 7.87173 7.54358C8.39242 7.75754 8.80904 7.85175 8.98345 7.69957C9.44618 7.29607 8.526 5.67771 8.21436 5.16176C8.20609 5.14795 8.20089 5.13249 8.19912 5.11649C8.19734 5.10047 8.19905 5.08425 8.2041 5.06896C8.20915 5.05365 8.21742 5.03962 8.22838 5.02781C8.23933 5.016 8.25271 5.00667 8.26758 5.00049C8.78717 4.78362 9.14856 4.55561 9.16424 4.32451C9.20616 3.71198 7.41119 3.21829 6.82618 3.07395ZM6.12343 2.48672C6.24116 2.69777 5.63445 4.10401 5.18321 5.08761C5.17566 5.10404 5.16327 5.11779 5.14767 5.12697C5.13209 5.13616 5.11404 5.14035 5.096 5.13898C5.07796 5.13761 5.06076 5.13074 5.04674 5.11932C5.03271 5.10787 5.02252 5.09242 5.01754 5.07501C4.8353 4.4355 4.62699 3.68411 4.4041 3.04624C4.39535 3.0212 4.39579 2.99387 4.40534 2.96913C4.41489 2.94439 4.43293 2.92385 4.45622 2.91118C5.01281 2.60719 5.96523 2.20351 6.12343 2.48672ZM3.45604 2.66077C3.68841 2.72674 4.25374 4.15012 4.63008 5.1647C4.63637 5.18165 4.6373 5.20011 4.63278 5.21762C4.62824 5.23512 4.61848 5.25081 4.60477 5.2626C4.59105 5.27439 4.57406 5.2817 4.55607 5.28354C4.53809 5.2854 4.51997 5.2817 4.50415 5.27295C3.9226 4.95019 3.24445 4.56565 2.63574 4.27223C2.6119 4.26065 2.59295 4.24103 2.58223 4.21679C2.57152 4.19257 2.56975 4.16532 2.57724 4.13992C2.75639 3.53194 3.14385 2.57238 3.45604 2.66077ZM1.69297 4.67006C1.90383 4.55232 3.31024 5.15905 4.29365 5.61029C4.31011 5.61784 4.32385 5.63023 4.33304 5.64583C4.34222 5.66141 4.34642 5.67946 4.34505 5.6975C4.34366 5.71554 4.33681 5.73273 4.32537 5.74676C4.31394 5.76078 4.29848 5.77098 4.28108 5.77596C3.64175 5.95821 2.89016 6.16652 2.25229 6.3894C2.22729 6.3981 2.19999 6.39764 2.17529 6.38809C2.1506 6.37854 2.13008 6.36054 2.11743 6.33726C1.81399 5.78068 1.40958 4.82825 1.69297 4.67006ZM1.86702 7.33746C1.93281 7.10509 3.35635 6.53974 4.37093 6.1634C4.38788 6.15713 4.40636 6.1562 4.42385 6.16072C4.44137 6.16526 4.45706 6.17503 4.46885 6.18873C4.48062 6.20244 4.48795 6.21944 4.48979 6.23741C4.49163 6.2554 4.48793 6.27351 4.47918 6.28935C4.15624 6.8709 3.7717 7.54905 3.47828 8.15758C3.46681 8.18149 3.44718 8.20053 3.42293 8.21129C3.39869 8.22204 3.37141 8.22381 3.34596 8.21626C2.73798 8.0382 1.77845 7.64965 1.86702 7.33746ZM3.87631 9.10053C3.75839 8.88967 4.36528 7.48326 4.81652 6.49985C4.82407 6.48339 4.83648 6.46965 4.85206 6.46046C4.86766 6.45128 4.88569 6.44709 4.90373 6.44845C4.92179 6.44982 4.93898 6.45669 4.95299 6.46812C4.96703 6.47956 4.97721 6.49502 4.98219 6.51242C5.16444 7.15175 5.37275 7.90334 5.59564 8.54121C5.60433 8.56623 5.60384 8.59353 5.59427 8.61825C5.58468 8.64294 5.56662 8.66344 5.54333 8.67607C4.98693 8.97952 4.03432 9.38393 3.87685 9.10053H3.87631ZM6.54369 8.92646C6.31114 8.86067 5.74581 7.43715 5.36947 6.42257C5.36316 6.40559 5.36219 6.38707 5.36673 6.36954C5.37125 6.35201 5.38106 6.33628 5.3948 6.32449C5.40854 6.31268 5.42558 6.30539 5.44359 6.30357C5.46161 6.30174 5.47976 6.3055 5.49558 6.3143C6.07695 6.63706 6.75528 7.02181 7.36381 7.31523C7.3877 7.32673 7.40669 7.34635 7.41743 7.37059C7.42814 7.39485 7.42987 7.42211 7.42231 7.44754C7.24334 8.05643 6.85588 9.01504 6.54369 8.92646ZM8.30676 6.91718C8.09572 7.03509 6.68949 6.42821 5.7059 5.97696C5.68944 5.96941 5.6757 5.95702 5.66651 5.94142C5.65733 5.92584 5.65315 5.9078 5.65452 5.88975C5.65589 5.87171 5.66274 5.85452 5.67418 5.84049C5.68561 5.82646 5.70107 5.81629 5.71847 5.81131C6.35798 5.62907 7.10939 5.42074 7.74726 5.19785C7.77232 5.18915 7.79965 5.18963 7.82439 5.19922C7.84912 5.2088 7.86964 5.22686 7.8823 5.25017C8.18557 5.80658 8.58997 6.75917 8.30676 6.91718ZM8.13271 4.24979C8.06674 4.48234 6.64338 5.04769 5.62881 5.42404C5.61182 5.43034 5.59332 5.43129 5.57579 5.42677C5.55826 5.42223 5.54253 5.41245 5.53072 5.3987C5.51893 5.38496 5.51164 5.36792 5.50982 5.3499C5.50799 5.33189 5.51173 5.31374 5.52055 5.2979C5.84331 4.71653 6.22785 4.0382 6.52127 3.42968C6.53281 3.40582 6.55244 3.38685 6.57668 3.37613C6.60092 3.36542 6.62818 3.36365 6.65359 3.37117C7.26157 3.55014 8.2211 3.9376 8.13271 4.24979Z" fill="#000"/>
</svg>
