<svg xmlns="http://www.w3.org/2000/svg" viewBox="0 0 10 11" fill="none">
  <path d="M8.57484 8.36481C8.35724 8.36481 8.17749 8.54456 8.17749 8.76215C8.17749 8.97974 7.99774 9.15949 7.78015 9.15949C7.56256 9.15949 7.38281 8.97974 7.38281 8.76215V6.77071C7.42065 6.66191 7.45376 6.55311 7.45376 6.44432C7.45376 6.44432 7.45376 4.20217 7.45376 4.12649C7.45376 2.74998 6.3658 1.62891 4.99402 1.62891C3.62225 1.62891 2.49644 2.75471 2.49644 4.13122C2.49644 4.20217 2.49644 6.44905 2.49644 6.44905C2.49644 6.59569 2.53428 6.73759 2.64308 6.88423V8.76688C2.64308 8.98447 2.46333 9.16422 2.24574 9.16422C2.02815 9.16422 1.8484 8.98447 1.8484 8.76688C1.8484 8.54929 1.66865 8.36954 1.45105 8.36954C1.23346 8.36954 1.05371 8.54929 1.05371 8.76688C1.05371 9.38181 1.55985 9.88795 2.17478 9.95891C2.21263 9.95891 2.21263 9.95891 2.24574 9.95891C2.28358 9.95891 2.28358 9.95891 2.31669 9.95891C2.93163 9.92106 3.43777 9.41493 3.43777 8.76688V7.21062C3.43777 7.21062 3.39992 6.88423 3.6932 6.88423C3.98175 6.88423 3.94863 7.21062 3.94863 7.21062V8.76688C3.94863 8.98447 4.12838 9.16422 4.34598 9.16422C4.56357 9.16422 4.74332 8.98447 4.74332 8.76688V7.21062C4.74332 7.21062 4.67237 6.88423 4.99875 6.88423C5.32514 6.88423 5.25419 7.21062 5.25419 7.21062V8.76688C5.25419 8.98447 5.43394 9.16422 5.65153 9.16422C5.86912 9.16422 6.04887 8.98447 6.04887 8.76688V7.21062C6.04887 7.21062 6.01103 6.88423 6.30431 6.88423C6.59285 6.88423 6.55974 7.21062 6.55974 7.21062V8.76688C6.55974 9.38181 7.06588 9.88795 7.68082 9.95891C7.71866 9.95891 7.71866 9.95891 7.75177 9.95891C7.78488 9.95891 7.78961 9.95891 7.82272 9.95891C8.43766 9.92106 8.9438 9.41493 8.9438 8.76688C8.97218 8.54456 8.79243 8.36481 8.57484 8.36481ZM3.68847 6.11793C3.47088 6.11793 3.29113 5.90034 3.29113 5.61179C3.29113 5.32324 3.47088 5.10565 3.68847 5.10565C3.90606 5.10565 4.08581 5.32324 4.08581 5.61179C4.08581 5.90034 3.90606 6.11793 3.68847 6.11793ZM6.33269 6.11793C6.1151 6.11793 5.93535 5.90034 5.93535 5.61179C5.93535 5.32324 6.1151 5.10565 6.33269 5.10565C6.55028 5.10565 6.73003 5.32324 6.73003 5.61179C6.73003 5.90034 6.55028 6.11793 6.33269 6.11793Z" fill="#000"/>
</svg>
