<?xml version="1.0" encoding="UTF-8" standalone="no"?>
<!-- Created with Inkscape (http://www.inkscape.org/) -->

<svg
   viewBox="0 0 24 24"
   version="1.1"
   id="svg1"
   fill="none"
   inkscape:version="1.3.2 (091e20e, 2023-11-25, custom)"
   sodipodi:docname="master-kilo-code.svg"
   xml:space="preserve"
   inkscape:export-filename="kilo-code.svg"
   inkscape:export-xdpi="96"
   inkscape:export-ydpi="96"
   xmlns:inkscape="http://www.inkscape.org/namespaces/inkscape"
   xmlns:sodipodi="http://sodipodi.sourceforge.net/DTD/sodipodi-0.dtd"
   xmlns="http://www.w3.org/2000/svg"
   xmlns:svg="http://www.w3.org/2000/svg"><sodipodi:namedview
     id="namedview1"
     pagecolor="#ffffff"
     bordercolor="#000000"
     borderopacity="0.25"
     inkscape:showpageshadow="2"
     inkscape:pageopacity="0.0"
     inkscape:pagecheckerboard="0"
     inkscape:deskcolor="#d1d1d1"
     inkscape:document-units="px"
     inkscape:zoom="25.4"
     inkscape:cx="14.744095"
     inkscape:cy="12.893701"
     inkscape:window-width="1920"
     inkscape:window-height="1129"
     inkscape:window-x="933"
     inkscape:window-y="1072"
     inkscape:window-maximized="1"
     inkscape:current-layer="layer7" /><defs
     id="defs1" /><g
     inkscape:groupmode="layer"
     id="layer7"
     inkscape:label="Layer 2"><path
       style="display:inline;fill:#000000;stroke-width:0.09"
       d="M 2.9999994,12 V 2.9999998 H 12 21.000001 V 12 21 H 12 2.9999994 Z M 19.650001,12 V 4.3499997 H 12 4.3499994 V 12 19.65 H 12 19.650001 Z M 13.1475,16.84265 12.72,16.37472 V 15.31236 14.25 h 0.63 0.63 v -0.63 -0.63 h 1.060575 1.060574 l 0.472637,0.47858 0.472637,0.47859 -0.02571,0.98391 -0.02571,0.98392 -0.648635,0.0264 -0.648635,0.0264 -0.02636,0.64864 -0.02637,0.64863 -1.035,0.0228 -1.035,0.0228 z M 15.69,15.105 V 14.25 H 14.835 13.98 v 0.855 0.855 h 0.855 0.855 z M 7.4746823,16.51989 6.9599994,15.99978 V 14.35989 12.72 h 0.6749999 0.6750001 v 1.485 1.485 h 1.485 H 11.28 v 0.675 0.675 H 9.6346824 7.9893653 Z M 10.02,13.35 v -0.63 h 0.63 0.63 v 0.63 0.63 H 10.65 10.02 Z M 6.9599993,9.1650003 V 7.0499997 h 0.675 0.675 v 0.72 0.7200001 h 0.830384 0.8303843 L 10.625384,9.1402502 11.28,9.7905003 V 10.53525 11.28 H 10.65 10.02 V 10.56 9.8400002 h -0.8550007 -0.855 V 10.56 11.28 h -0.675 -0.675 z M 12.72,10.65 v -0.63 h 0.72 0.72 V 9.1650002 8.3099997 h -0.72 -0.72 v -0.63 -0.63 h 0.970884 0.970883 l 0.424117,0.43059 0.424116,0.43059 V 8.9655897 10.02 h 0.765 0.765 v 0.63 0.63 h -2.16 -2.16 z m -2.7,-2.8800003 v -0.72 h 0.63 0.63 v 0.72 0.7200001 h -0.63 -0.63 z"
       id="path1" /></g></svg>
