<svg width="64" height="64" viewBox="0 0 64 64" fill="none" xmlns="http://www.w3.org/2000/svg">
<path d="M54.4206 41.9227C55.382 40.9614 56 39.6566 56 38.1459V25.7167C56 24.206 55.382 22.9013 54.4206 21.9399L41.9914 9.51073C41.03 8.48068 39.6567 7.93133 38.2146 7.93133H25.7854C24.2747 7.93133 22.97 8.48068 21.9399 9.51073L9.51073 21.9399C8.54936 22.9013 8 24.206 8 25.7167V38.1459C8 39.6566 8.54936 40.9614 9.51073 41.9914L21.9399 54.4206C22.97 55.382 24.2747 56 25.7854 56H38.2146C39.6567 56 41.03 55.382 41.9914 54.3519L54.4206 41.9227ZM44.6151 24.6724V39.1902C44.6151 42.143 42.2117 44.6151 39.2589 44.6151H24.7411C21.7197 44.6151 19.3162 42.143 19.3162 39.1902V24.6724C19.3162 21.7197 21.7197 19.3162 24.7411 19.3162H39.2589C42.2117 19.3162 44.6151 21.7197 44.6151 24.6724Z" fill="#364153"/>
</svg>
