<?xml version="1.0" encoding="UTF-8" standalone="no"?>
<!-- Created with Inkscape (http://www.inkscape.org/) -->

<svg
   viewBox="0 0 24 24"
   version="1.1"
   id="svg1"
   fill="none"
   inkscape:version="1.3.2 (091e20e, 2023-11-25, custom)"
   sodipodi:docname="master-open-code.svg"
   xml:space="preserve"
   xmlns:inkscape="http://www.inkscape.org/namespaces/inkscape"
   xmlns:sodipodi="http://sodipodi.sourceforge.net/DTD/sodipodi-0.dtd"
   xmlns="http://www.w3.org/2000/svg"
   xmlns:svg="http://www.w3.org/2000/svg"><sodipodi:namedview
     id="namedview1"
     pagecolor="#ffffff"
     bordercolor="#000000"
     borderopacity="0.25"
     inkscape:showpageshadow="2"
     inkscape:pageopacity="0.0"
     inkscape:pagecheckerboard="0"
     inkscape:deskcolor="#d1d1d1"
     inkscape:document-units="px"
     inkscape:zoom="8.9802561"
     inkscape:cx="31.123834"
     inkscape:cy="24.108444"
     inkscape:window-width="1920"
     inkscape:window-height="1129"
     inkscape:window-x="933"
     inkscape:window-y="1072"
     inkscape:window-maximized="1"
     inkscape:current-layer="layer7" /><defs
     id="defs1" /><g
     inkscape:groupmode="layer"
     id="layer7"
     inkscape:label="Layer 2"><path
       style="display:inline;fill:#000000;stroke-width:0.122075"
       d="m 6.208704,19.21599 c -0.2668066,-0.266807 -0.057883,-0.969902 0.5425554,-1.825888 0.3580864,-0.510487 0.6510664,-0.97991 0.6510664,-1.043162 0,-0.06325 -0.9440711,-0.115004 -2.0979344,-0.115004 -3.0332826,0 -2.8664483,0.224155 -2.8664483,-3.851328 V 9.1515841 L 3.4912128,7.2797678 C 4.0705105,6.2502689 4.7080754,5.2431502 4.9080219,5.0417264 L 5.2715622,4.6755014 H 11.7644 c 6.117432,0 6.50864,0.017461 6.766139,0.3019946 0.325727,0.3599236 0.262984,0.5655112 -0.578437,1.8953554 -0.339854,0.53713 -0.618613,1.0681563 -0.619464,1.1800577 -0.0011,0.1505294 0.464227,0.2034587 1.788887,0.2034587 2.550201,0 2.4415,-0.1655936 2.4415,3.7193452 0,1.929949 -0.07103,3.273545 -0.191456,3.621559 -0.298393,0.86231 -1.724493,3.194382 -2.124936,3.47486 -0.310386,0.217407 -1.231056,0.252367 -6.644863,0.252367 -3.4565049,0 -6.3333851,-0.04883 -6.393066,-0.108509 z m 12.459677,-0.746016 c 0.430724,-0.336871 1.45426,-2.071901 1.397204,-2.368444 -0.04854,-0.252278 -0.516609,-0.280497 -5.340939,-0.321995 -2.908255,-0.02501 -5.4355403,-0.0096 -5.6161896,0.03431 -0.3148176,0.07648 -2.0316643,2.353588 -2.0316643,2.694657 0,0.260224 11.2574479,0.222804 11.5915889,-0.03857 z M 8.0533921,15.336719 c 0.1697574,-0.204545 0.8396784,-0.244554 4.1297889,-0.246643 2.159938,-0.0013 4.008981,-0.05631 4.108984,-0.122075 0.325197,-0.213878 1.381939,-1.994203 1.280814,-2.157827 -0.107152,-0.173378 -11.1240314,-0.226313 -11.7577052,-0.0565 -0.4012125,0.10752 -1.9938144,2.02714 -1.9938144,2.403215 0,0.351686 0.2451665,0.397127 2.2181113,0.411125 1.4229366,0.0101 1.8546318,-0.03949 2.0138214,-0.231299 z M 20.434358,14.924075 c 0.292235,-0.156397 0.314834,-0.366296 0.314834,-2.924073 0,-2.5577768 -0.0226,-2.7676745 -0.314834,-2.924074 C 20.044034,8.8670325 10.51943,8.8442069 9.9764967,9.050867 c -0.371655,0.1414645 -1.5975709,2.108729 -1.5975709,2.563671 0,0.183398 0.8492369,0.222698 4.8123172,0.222698 3.005985,0 4.930491,0.06324 5.127149,0.168493 0.453947,0.242945 0.389802,0.828646 -0.19352,1.767014 -0.706214,1.13606 -0.589329,1.319827 0.839479,1.319827 0.635347,0 1.29685,-0.07582 1.470007,-0.168495 z M 7.8973043,10.345426 C 9.2039277,8.0814395 8.7986187,8.2567145 12.732935,8.2542664 l 3.377407,-0.00209 0.773142,-1.1885004 c 0.425227,-0.6536741 0.773141,-1.2386888 0.773141,-1.3000313 0,-0.061341 -2.563575,-0.11153 -5.696833,-0.11153 -5.4798108,0 -5.7092339,0.012397 -6.0223662,0.3255327 -0.2946748,0.2946758 -0.3255327,0.5425564 -0.3255327,2.6149672 0,2.7003854 0.178048,3.2356544 1.0784428,3.2421414 0.2660152,0.0019 0.5450141,-0.34235 1.2069684,-1.489317 z"
       id="path1" /></g></svg>
