<?xml version="1.0" encoding="UTF-8" standalone="no"?>
<svg
   viewBox="0 0 24 24"
   fill-rule="evenodd"
   role="img"
   class="w-auto "
   aria-label="Phoenix.new Logo"
   data-phx-id="m1-phx-GF1whxGvO5ccAhkB"
   version="1.1"
   id="svg3"
   fill="none"
   xmlns="http://www.w3.org/2000/svg"
   xmlns:svg="http://www.w3.org/2000/svg">
  <defs
     id="defs3">
    <linearGradient
       id="_Linear1-8"
       x1="0"
       y1="0"
       x2="1"
       y2="0"
       gradientUnits="userSpaceOnUse"
       gradientTransform="matrix(17.999995,17.999995,-17.999995,17.999995,3.0000002,2.9999996)">
      <stop
         offset="0"
         stop-color="#878787"
         id="stop2-0"
         style="stop-color:#878787;stop-opacity:1;" />
      <stop
         offset="1"
         stop-color="#101010"
         id="stop3-0"
         style="stop-color:#101010;stop-opacity:1;" />
    </linearGradient>
  </defs>
  <g
     id="layer6">
    <path
       d="m 12,2.9999997 c 4.967224,0 9,4.0327762 9,9.0000003 0,4.967224 -4.032776,9 -9,9 C 7.0327762,21 3.0000002,16.967224 3.0000002,12 3.0000002,7.032776 7.0327762,2.9999997 12,2.9999997 Z m 0,0.8481385 c 4.499118,0 8.151862,3.652705 8.151862,8.1518618 0,4.499118 -3.652744,8.151862 -8.151862,8.151862 C 7.5008401,20.151862 3.8481387,16.499118 3.8481387,12 3.8481387,7.5008433 7.5008401,3.8481382 12,3.8481382 Z m 0.289099,1.7965823 c -0.03681,0.064543 -0.09912,0.055803 -0.10047,0.056094 -0.86003,0.1752696 -5.6519035,0.9914279 -5.3340191,5.8754125 0.1148832,1.765443 1.4895788,2.969533 2.2253972,3.311411 0.7755274,0.360366 2.7396419,0.850032 4.0360529,-0.719175 0.652408,-0.789731 0.615555,-2.270068 -0.02571,-2.512902 -0.751618,-0.284644 -0.835659,0.398438 -1.147239,0.36583 -0.271032,-0.02834 -0.452811,-0.567023 -0.249475,-1.010926 0.141903,-0.309857 0.697118,-0.589422 1.200899,-0.566601 1.469032,0.06648 2.538996,1.507269 2.034079,3.572524 -0.234222,0.957896 -1.17199,2.341585 -2.993907,2.711029 -1.818808,0.368848 -3.7106482,-0.242418 -5.2171614,-2.44071 -0.031183,-0.04549 -0.2049748,0.06622 0.5025632,1.111271 0.7505251,1.108412 1.8879316,2.087906 3.5998402,2.575297 0.230566,0.06564 0.499328,0.137994 0.408186,0.189724 C 10.181996,18.757123 7.4170155,17.549503 6.1629606,15.502395 5.0032382,13.609295 5.1907324,12.082359 5.218802,11.322761 5.2843538,9.5473566 6.7512843,6.2758208 10.0582,5.5292875 c 1.45651,-0.3288064 2.352846,-0.098451 2.230902,0.1154328 z m 1.534584,12.0588235 c 0,-0.06841 0.05181,-0.09008 0.0529,-0.09064 0.605346,-0.319484 4.20174,-3.429784 1.805951,-7.191148 -0.86604,-1.359655 -2.256241,-1.5731577 -3.016388,-1.5731577 -0.760191,0 -2.800152,0.3842733 -2.800152,2.4156647 0,1.568452 1.395915,2.108368 1.990798,2.084798 a 0.13358266,0.13358266 0 0 1 0.150096,0.103997 l 6.16e-4,5.6e-4 c 0.002,0.0096 0.003,0.01939 0.0027,0.02924 l -0.0021,0.01933 a 0.13265821,0.13265821 0 0 1 -0.02121,0.05362 C 11.721515,13.992791 9.271226,14.317647 8.5331808,12.212473 8.2350463,11.362105 8.0753272,9.9360185 9.1199527,8.725749 10.322492,7.3325227 12.94872,6.2903339 15.227945,7.9769014 c 3.617447,2.6769086 2.616523,7.4222256 0.146231,9.2100176 -0.818178,0.592111 -1.550551,0.743339 -1.550551,0.516643 z M 17.063199,7.0460544 c 0.543029,0.4852115 0.786788,1.0997564 0.543995,1.3714594 C 17.364401,8.6892177 16.726447,8.5158414 16.183418,8.0306357 15.64039,7.5453847 15.39663,6.9308734 15.639424,6.6591755 15.882217,6.387472 16.52017,6.560848 17.063199,7.0460544 Z"
       fill="url(#_Linear1)"
       id="path2-5"
       style="fill:url(#_Linear1-8);stroke-width:0.0420203" />
  </g>
</svg>
