<svg xmlns="http://www.w3.org/2000/svg" viewBox="0 0 13 11" fill="none">
  <path d="M10.8887 1.90612L10.6494 2.77132C10.6367 2.81713 10.5889 2.8436 10.5434 2.83001L6.52963 1.63245C6.50293 1.62448 6.47403 1.63013 6.45229 1.64756L2.47722 4.83529C2.46562 4.8446 2.45177 4.85069 2.43707 4.85296L0.0719203 5.21745C0.0281264 5.22419 -0.00309664 5.26351 0.000244815 5.30769L0.0105218 5.4436C0.0138041 5.48701 0.0494089 5.52089 0.0929268 5.52201L2.84014 5.59303L2.87148 5.59391L4.9014 4.50958C4.92982 4.4944 4.96438 4.49663 4.99062 4.51533L6.42874 5.54048C6.4513 5.55656 6.46458 5.58263 6.46433 5.61032L6.4522 6.97058C6.45205 6.98819 6.45737 7.0054 6.46744 7.01985L8.49043 9.92257C8.5063 9.94534 8.53229 9.95891 8.56004 9.95891H9.20043C9.26432 9.95891 9.30529 9.89096 9.27546 9.83446L7.83359 7.10297C7.81949 7.07626 7.82065 7.04406 7.83665 7.01844L8.58842 5.81413C8.59661 5.80102 8.60822 5.7904 8.622 5.7834L11.3097 4.41951C11.337 4.40566 11.3697 4.40759 11.3952 4.42457L12.1632 4.93651C12.1771 4.9458 12.1935 4.95076 12.2103 4.95076H12.9081C12.9757 4.95076 13.0161 4.87561 12.9789 4.8192L11.0413 1.88202C11.0011 1.8212 10.9081 1.8359 10.8887 1.90612Z" fill="#000"/>
</svg>
