<svg width="165" height="173" viewBox="0 0 165 173" fill="none" xmlns="http://www.w3.org/2000/svg">
<path d="M86.9639 56.5H84.8752C79.4209 56.5 76.0328 59.8731 76.0328 65.3014V108.97C76.0328 129.673 69.7047 138.118 54.1904 138.118C38.6761 138.118 32.3478 129.635 32.3478 108.839V65.3014C32.3478 59.8731 28.9596 56.5 23.5061 56.5H21.4163C15.9625 56.5 12.5743 59.8731 12.5743 65.3014V108.97C12.5743 140.509 26.5763 156.5 54.1904 156.5C81.8045 156.5 95.8058 140.509 95.8058 108.97V65.3014C95.8058 59.8731 92.4175 56.5 86.9639 56.5Z" fill="white"/>
<path d="M120.794 82.9985H119.063C113.474 82.9985 110.003 86.5025 110.003 92.1415V147.357C110.003 152.996 113.474 156.5 119.063 156.5H120.794C126.383 156.5 129.854 152.996 129.854 147.357V92.1415C129.854 86.5025 126.383 82.9985 120.794 82.9985Z" fill="white"/>
<path d="M144.769 48.818C132.137 46.7891 122.169 36.8213 120.14 24.1897C120.102 23.9513 119.793 23.9513 119.755 24.1897C117.726 36.8213 107.758 46.7891 95.1263 48.818C94.8878 48.8563 94.8878 49.1655 95.1263 49.2037C107.758 51.2322 117.726 61.2004 119.755 73.832C119.793 74.0705 120.102 74.0705 120.14 73.832C122.169 61.2004 132.137 51.2322 144.769 49.2037C145.007 49.1655 145.007 48.8563 144.769 48.818ZM132.358 49.1073C126.042 50.1215 121.058 55.1056 120.044 61.4215C120.025 61.5407 119.87 61.5407 119.851 61.4215C118.837 55.1056 113.853 50.1215 107.537 49.1073C107.418 49.0882 107.418 48.9336 107.537 48.9145C113.853 47.9 118.837 42.9161 119.851 36.6003C119.87 36.4811 120.025 36.4811 120.044 36.6003C121.058 42.9161 126.042 47.9 132.358 48.9145C132.477 48.9336 132.477 49.0882 132.358 49.1073Z" fill="white"/>
<path d="M152.336 29.0964C146.02 30.1107 141.036 35.0948 140.022 41.4106C140.003 41.5298 139.848 41.5298 139.829 41.4106C138.815 35.0948 133.831 30.1107 127.515 29.0964C127.396 29.0773 127.396 28.9227 127.515 28.9036C133.831 27.8891 138.815 22.9052 139.829 16.5894C139.848 16.4702 140.003 16.4702 140.022 16.5894C141.036 22.9052 146.02 27.8891 152.336 28.9036C152.456 28.9227 152.456 29.0773 152.336 29.0964Z" fill="white"/>
</svg>
